<svg id="Layer_1" data-name="Layer 1" xmlns="http://www.w3.org/2000/svg" viewBox="0 0 1920 1080"><defs><style>.cls-1{fill:#0d6efd;}.cls-2{fill:#ffc0b7;}</style></defs><path class="cls-1" d="M744.79,905H598.29l41.45-551.15,44.73-21.41Q714.64,618.71,744.79,905Z"/><path class="cls-1" d="M639.74,355.61a1.78,1.78,0,1,1,0-3.56A123.44,123.44,0,0,0,685,342.73a1.83,1.83,0,0,1,2.38.95,1.77,1.77,0,0,1-1,2.33,126.84,126.84,0,0,1-46.66,9.6Z"/><path class="cls-1" d="M1187,905h146.5Q1312.75,629.42,1292,353.83l-44.73-21.41Q1217.14,618.71,1187,905Z"/><path class="cls-1" d="M1292,355.61a126.83,126.83,0,0,1-46.69-9.6,1.78,1.78,0,0,1-1-2.33,1.83,1.83,0,0,1,2.38-.95,123.32,123.32,0,0,0,45.31,9.32,1.78,1.78,0,1,1,0,3.56Z"/><text/><path class="cls-1" d="M926.27,13.44c8.07,69.45-5.91,119.12-17,147.26-48.82,124.13-187.41,201.76-350,198.2q-.88-172.5-1.79-345Z"/><path class="cls-1" d="M995.21,13.44c-8.07,69.45,5.92,119.12,17,147.26,48.82,124.13,187.41,201.76,350,198.2q.9-172.5,1.79-345Z"/><rect class="cls-1" x="497.54" y="904.98" width="924.99" height="62.1"/><rect class="cls-1" x="445.84" y="955.8" width="1028.4" height="62.1"/><rect class="cls-1" x="397" y="1017.9" width="1126.07" height="62.1"/><path class="cls-2" d="M1404.06,957.58H505.89a1.79,1.79,0,1,1,0-3.57h898.17a1.79,1.79,0,1,1,0,3.57Z"/><path class="cls-2" d="M1459.6,1019.68H445.83a1.78,1.78,0,1,1,0-3.56H1459.6a1.78,1.78,0,1,1,0,3.56Z"/><path class="cls-2" d="M1422.53,15.22h-925a1.78,1.78,0,1,1,0-3.56h925a1.78,1.78,0,1,1,0,3.56Z"/></svg>